<svg width="39" height="39" viewBox="0 0 39 39" fill="none" xmlns="http://www.w3.org/2000/svg">
<circle cx="19.1462" cy="19.0826" r="19.0826" fill="#8257E6"/>
<path d="M10.6716 30.1328C18.5121 25.0903 24.5087 15.5367 24.335 6.17822" stroke="white" stroke-linecap="round" stroke-linejoin="round"/>
<path d="M20.5725 5.33276C27.2403 13.7039 30.1365 22.7158 27.5558 30.1978" stroke="white" stroke-linecap="round" stroke-linejoin="round"/>
<path d="M5.47766 20.2969C11.886 10.5157 20.9518 8.46633 30.5593 11.3293" stroke="white" stroke-linecap="round" stroke-linejoin="round"/>
<path d="M5.69421 16.4368C15.3889 26.207 22.4808 27.5956 31.3944 25.5677" stroke="white" stroke-linecap="round" stroke-linejoin="round"/>
<path d="M33.1296 19.0826C33.1296 26.8054 26.869 33.066 19.1462 33.066C11.4235 33.066 5.16284 26.8054 5.16284 19.0826M33.1296 19.0826C33.1296 11.3599 26.869 5.09924 19.1462 5.09924C11.4235 5.09924 5.16284 11.3599 5.16284 19.0826" stroke="white" stroke-linecap="round" stroke-linejoin="round"/>
</svg>
