<svg width="47" height="47" viewBox="0 0 47 47" fill="none" xmlns="http://www.w3.org/2000/svg">
<circle cx="23.1462" cy="23.0826" r="22.9624" fill="#8257E6"/>
<path d="M14.6716 34.1328C22.5121 29.0903 28.5087 19.5367 28.335 10.1782" stroke="white" stroke-linecap="round" stroke-linejoin="round"/>
<path d="M24.5725 9.33276C31.2403 17.7039 34.1365 26.7158 31.5558 34.1978" stroke="white" stroke-linecap="round" stroke-linejoin="round"/>
<path d="M9.47766 24.2969C15.886 14.5157 24.9518 12.4663 34.5593 15.3293" stroke="white" stroke-linecap="round" stroke-linejoin="round"/>
<path d="M9.69421 20.4368C19.3889 30.207 26.4808 31.5956 35.3944 29.5677" stroke="white" stroke-linecap="round" stroke-linejoin="round"/>
<path d="M37.1296 23.0826C37.1296 30.8054 30.869 37.066 23.1462 37.066C15.4235 37.066 9.16284 30.8054 9.16284 23.0826M37.1296 23.0826C37.1296 15.3599 30.869 9.09924 23.1462 9.09924C15.4235 9.09924 9.16284 15.3599 9.16284 23.0826" stroke="white" stroke-linecap="round" stroke-linejoin="round"/>
</svg>
