<svg width="32" height="32" viewBox="0 0 32 32" fill="none" xmlns="http://www.w3.org/2000/svg">
<path d="M7.13477 26.6595C14.9752 21.617 20.9718 12.0634 20.7982 2.70496" stroke="#8257E6" stroke-linecap="round" stroke-linejoin="round"/>
<path d="M17.0356 1.8595C23.7034 10.2307 26.5996 19.2425 24.0189 26.7246" stroke="#8257E6" stroke-linecap="round" stroke-linejoin="round"/>
<path d="M1.9408 16.8237C8.34909 7.04244 17.4149 4.99306 27.0225 7.85608" stroke="#8257E6" stroke-linecap="round" stroke-linejoin="round"/>
<path d="M2.15735 12.9636C11.8521 22.7337 18.9439 24.1223 27.8575 22.0944" stroke="#8257E6" stroke-linecap="round" stroke-linejoin="round"/>
<path d="M29.5928 15.6094C29.5928 23.3321 23.3321 29.5928 15.6094 29.5928C7.88664 29.5928 1.62598 23.3321 1.62598 15.6094M29.5928 15.6094C29.5928 7.88664 23.3321 1.62598 15.6094 1.62598C7.88664 1.62598 1.62598 7.88664 1.62598 15.6094" stroke="#8257E6" stroke-linecap="round" stroke-linejoin="round"/>
</svg>
